<svg width="60" height="16" viewBox="0 0 60 16" fill="none" xmlns="http://www.w3.org/2000/svg">
<path d="M42.3008 7.59766V15.9997H47.5872V11.2736H52.9076C55.6864 11.2736 58.0585 9.7474 58.9735 7.59766H42.3008V7.59766Z" fill="#006848"/>
<path d="M42.0625 0C42.0794 0.426667 42.1472 0.853333 42.2489 1.24718C42.2658 1.32923 42.2997 1.42769 42.3167 1.50974C42.3336 1.54256 42.3336 1.57538 42.3505 1.62462C43.2994 4.52923 46.0951 6.62974 49.3992 6.62974H59.1588C59.2265 6.30154 59.2604 5.97333 59.2604 5.62872C59.2604 3.98769 58.5318 2.51077 57.3627 1.47692C56.3292 0.557949 54.9567 0 53.4318 0H42.0625V0Z" fill="url(#paint0_linear)"/>
<path d="M32.9284 1.69026L29.2347 9.45231H28.8619V0H23.6094V16H28.0656C29.2347 16 30.3022 15.3436 30.7935 14.3097L34.4873 6.54769H34.86V16H40.1126V0H35.6564C34.4873 0 33.4198 0.65641 32.9284 1.69026Z" fill="#006848"/>
<path d="M8.44551 2.10051L10.6482 9.45231H11.021L13.2067 2.10051C13.5795 0.853333 14.7486 0 16.0871 0H21.3397V16H16.0871V6.54769H15.7144L12.6984 16H8.95382L5.93783 6.54769H5.56507V16H0.3125V0H5.56507C6.90362 0 8.07274 0.853333 8.44551 2.10051Z" fill="#006848"/>
<defs>
<linearGradient id="paint0_linear" x1="42.0596" y1="3.31689" x2="59.2552" y2="3.31689" gradientUnits="userSpaceOnUse">
<stop stop-color="#02AFFF"/>
<stop offset="1" stop-color="#1F5BDE"/>
</linearGradient>
</defs>
</svg>
