<svg width="51" height="16" viewBox="0 0 51 16" fill="none" xmlns="http://www.w3.org/2000/svg">
<mask id="mask0" mask-type="alpha" maskUnits="userSpaceOnUse" x="0" y="0" width="51" height="16">
<path d="M0.8125 0H50.3124V16H0.8125" fill="white"/>
</mask>
<g mask="url(#mask0)">
<path fill-rule="evenodd" clip-rule="evenodd" d="M18.2539 15.7894L20.7619 0.28125H24.7716L22.2635 15.7894H18.2539Z" fill="#005CA3"/>
<path fill-rule="evenodd" clip-rule="evenodd" d="M36.7978 0.659872C36.0058 0.346573 34.7519 0 33.2009 0C29.241 0 26.4523 2.11172 26.4358 5.13073C26.4029 7.35808 28.4323 8.59547 29.9503 9.33803C31.5013 10.0967 32.0294 10.5916 32.0294 11.2682C32.013 12.3076 30.7756 12.7863 29.6206 12.7863C28.0201 12.7863 27.1619 12.5389 25.8583 11.961L25.3302 11.7136L24.7695 15.1948C25.7101 15.6238 27.4423 16.0033 29.241 16.0198C33.4483 16.0198 36.1873 13.941 36.2203 10.724C36.2367 8.95818 35.1644 7.60549 32.8544 6.50022C31.4519 5.79093 30.5941 5.31225 30.5941 4.58649C30.6105 3.92662 31.3198 3.25027 32.9038 3.25027C34.2074 3.21733 35.1644 3.53063 35.8905 3.84426L36.2535 4.00898L36.7978 0.659872Z" fill="#005CA3"/>
</g>
<path fill-rule="evenodd" clip-rule="evenodd" d="M47.0797 0.28125H43.9777C43.0206 0.28125 42.2946 0.561605 41.8821 1.56772L35.9258 15.7894H40.1331C40.1331 15.7894 40.8262 13.8753 40.9748 13.4629H46.1227C46.2383 14.0074 46.6013 15.7894 46.6013 15.7894H50.3138L47.0797 0.28125ZM42.1295 10.2953C42.4596 9.40448 43.7303 5.95621 43.7303 5.95621C43.7138 5.98949 44.0604 5.04893 44.2584 4.47142L44.5387 5.80764C44.5387 5.80764 45.2977 9.52012 45.4628 10.2953H42.1295Z" fill="#005CA3"/>
<path fill-rule="evenodd" clip-rule="evenodd" d="M14.9036 0.28125L10.9767 10.8563L10.5478 8.71134C9.82166 6.2369 7.54489 3.54799 5.00391 2.21145L8.60075 15.7729H12.8413L19.1442 0.28125H14.9036Z" fill="#005CA3"/>
<path fill-rule="evenodd" clip-rule="evenodd" d="M7.33018 0.28125H0.878388L0.8125 0.594549C5.84505 1.88135 9.17801 4.98304 10.5475 8.71134L9.14507 1.58419C8.91413 0.594549 8.20451 0.313865 7.33018 0.28125Z" fill="#FFAD30"/>
</svg>
